<svg role="img" aria-labelledby="t d" version="1.1" xmlns="http://www.w3.org/2000/svg" style="display:block" viewBox="275 377 1464 1285" preserveAspectRatio="xMidYMid meet" xmlns:c2pa="http://c2pa.org/manifest"><metadata><c2pa:manifest>AAAMZ2p1bWIAAAAeanVtZGMycGEAEQAQgAAAqgA4m3EDYzJwYQAAAAxBanVtYgAAAEdqdW1kYzJtYQARABCAAACqADibcQN1cm46YzJwYTo2ODk1Yzc1OC1mOGUzLTQ4ZWItYjYyZS0yYTIxNWRjMGFmMzcAAAAB4mp1bWIAAAApanVtZGMyYXMAEQAQgAAAqgA4m3EDYzJwYS5hc3NlcnRpb25zAAAAAO1qdW1iAAAAQWp1bWRjYm9yABEAEIAAAKoAOJtxE2MycGEuYWN0aW9ucy52MgAAAAAYYzJzaI3St9IZEg9lkQYYQIof2f0AAACkY2JvcqFnYWN0aW9uc4GjZmFjdGlvbmxjMnBhLmNyZWF0ZWRxZGlnaXRhbFNvdXJjZVR5cGV4Rmh0dHA6Ly9jdi5pcHRjLm9yZy9uZXdzY29kZXMvZGlnaXRhbHNvdXJjZXR5cGUvdHJhaW5lZEFsZ29yaXRobWljTWVkaWFrZGVzY3JpcHRpb252Q3JlYXRlZCBieSBSZWNyYWZ0IEFJLgAAAMRqdW1iAAAAQGp1bWRjYm9yABEAEIAAAKoAOJtxE2MycGEuaGFzaC5kYXRhAAAAABhjMnNonlLeW6f5jDP/RqIaDl/J+AAAAHxjYm9ypWpleGNsdXNpb25zgaJlc3RhcnQY22ZsZW5ndGgZEIxkbmFtZW5qdW1iZiBtYW5pZmVzdGNhbGdmc2hhMjU2ZGhhc2hYIPQa8vqjSoatKm66rntrwLK06WuWRqJqWm8I5un4/LWGY3BhZEkAAAAAAAAAAAAAAAI0anVtYgAAACdqdW1kYzJjbAARABCAAACqADibcQNjMnBhLmNsYWltLnYyAAAAAgVjYm9ypmppbnN0YW5jZUlEeCx4bXA6aWlkOjliZDUwZWFmLWY3YzQtNDdiZC1hM2VjLTMzZDAxMDU3YmFkYnRjbGFpbV9nZW5lcmF0b3JfaW5mb6NkbmFtZWpyZWNyYWZ0LmFpZ3ZlcnNpb254KDgxY2U4MmUyYzVjM2NiZmJlOGM2ZmJlMTc5ZDVmOGQ5MWM0MDljZTF3b3JnLmNvbnRlbnRhdXRoLmMycGFfcnNmMC45MC43aXNpZ25hdHVyZXhNc2VsZiNqdW1iZj0vYzJwYS91cm46YzJwYTo2ODk1Yzc1OC1mOGUzLTQ4ZWItYjYyZS0yYTIxNWRjMGFmMzcvYzJwYS5zaWduYXR1cmVyY3JlYXRlZF9hc3NlcnRpb25zgqJjdXJseCpzZWxmI2p1bWJmPWMycGEuYXNzZXJ0aW9ucy9jMnBhLmFjdGlvbnMudjJkaGFzaFggXP7WrmziSWgehtPeJGJ4N3Yacd0NKSUD23VfVYnBbtmiY3VybHgpc2VsZiNqdW1iZj1jMnBhLmFzc2VydGlvbnMvYzJwYS5oYXNoLmRhdGFkaGFzaFggYNHnGZhCP3LuJjJ+0zSeZ/Ng769rMSeflVsDPYUdUw9oZGM6dGl0bGV4GlJlY3JhZnQgQUkgR2VuZXJhdGVkIEltYWdlY2FsZ2ZzaGEyNTYAAAfcanVtYgAAAChqdW1kYzJjcwARABCAAACqADibcQNjMnBhLnNpZ25hdHVyZQAAAAesY2JvctKEWQOwogEmGCGCWQHnMIIB4zCCAYmgAwIBAgIJALfeWmNDUW56MAoGCCqGSM49BAMCMEAxHzAdBgNVBAMMFlJlY3JhZnQgU3RhZ2luZyBEZXYgQ0ExEDAOBgNVBAoMB1JlY3JhZnQxCzAJBgNVBAYTAlVTMB4XDTI2MDYxMjE5NDM1MFoXDTI3MDYxMjE5NDM1MFowNzELMAkGA1UEBhMCVVMxEzARBgNVBAoTClJlY3JhZnQgQUkxEzARBgNVBAMTCnJlY3JhZnQuYWkwWTATBgcqhkjOPQIBBggqhkjOPQMBBwNCAARKaTVbACsg/DeG3LeOxYdID/VA6EFG73E6Oknb+KIiCFJygRUz4ueN2z/t2qYb6CIUvS8RvgOiiClfoqsYtw81o3UwczAMBgNVHRMBAf8EAjAAMA4GA1UdDwEB/wQEAwIGwDATBgNVHSUEDDAKBggrBgEFBQcDBDAdBgNVHQ4EFgQULzHpBen96SL1y4IPHa8MkMshXf0wHwYDVR0jBBgwFoAUAgsqOBrKqpdK//m/kxZo7ZR4ebcwCgYIKoZIzj0EAwIDSAAwRQIgU8hKW0aXvvk8SQgVFNkax69Ym9ae8GsT2RZTQw+B51ACIQC0D4BkEoRD4N0r2ZRkNy0HZaW3WICy/QZGN95ilF4yzFkBvTCCAbkwggFfoAMCAQICCQCc+Wg7T6ATbzAKBggqhkjOPQQDAjBAMR8wHQYDVQQDDBZSZWNyYWZ0IFN0YWdpbmcgRGV2IENBMRAwDgYDVQQKDAdSZWNyYWZ0MQswCQYDVQQGEwJVUzAeFw0yNjA2MTIxOTQwMTZaFw0yODA2MTExOTQwMTZaMEAxHzAdBgNVBAMMFlJlY3JhZnQgU3RhZ2luZyBEZXYgQ0ExEDAOBgNVBAoMB1JlY3JhZnQxCzAJBgNVBAYTAlVTMFkwEwYHKoZIzj0CAQYIKoZIzj0DAQcDQgAEQ9IQBlcVbKaKPYrQSfOhL/00s7xUDC7RinIuLO/I1k99y9yh6oWF9kPxaP+tx1v1PeOL3yrVquJ730H0ZGiDyqNCMEAwDwYDVR0TAQH/BAUwAwEB/zAOBgNVHQ8BAf8EBAMCAYYwHQYDVR0OBBYEFAILKjgayqqXSv/5v5MWaO2UeHm3MAoGCCqGSM49BAMCA0gAMEUCIFQwNImLlYDeQhjgF+ZiqTbgcuzSqmOJw3Q2lQ/hu83FAiEA9O8cLm/xfoVLqB4jtdbuHzi3WL+p2RN+DRGkwpYswVuhY3BhZFkDpAAAAAAAAAAAAAAAAAAAAAAAAAAAAAAAAAAAAAAAAAAAAAAAAAAAAAAAAAAAAAAAAAAAAAAAAAAAAAAAAAAAAAAAAAAAAAAAAAAAAAAAAAAAAAAAAAAAAAAAAAAAAAAAAAAAAAAAAAAAAAAAAAAAAAAAAAAAAAAAAAAAAAAAAAAAAAAAAAAAAAAAAAAAAAAAAAAAAAAAAAAAAAAAAAAAAAAAAAAAAAAAAAAAAAAAAAAAAAAAAAAAAAAAAAAAAAAAAAAAAAAAAAAAAAAAAAAAAAAAAAAAAAAAAAAAAAAAAAAAAAAAAAAAAAAAAAAAAAAAAAAAAAAAAAAAAAAAAAAAAAAAAAAAAAAAAAAAAAAAAAAAAAAAAAAAAAAAAAAAAAAAAAAAAAAAAAAAAAAAAAAAAAAAAAAAAAAAAAAAAAAAAAAAAAAAAAAAAAAAAAAAAAAAAAAAAAAAAAAAAAAAAAAAAAAAAAAAAAAAAAAAAAAAAAAAAAAAAAAAAAAAAAAAAAAAAAAAAAAAAAAAAAAAAAAAAAAAAAAAAAAAAAAAAAAAAAAAAAAAAAAAAAAAAAAAAAAAAAAAAAAAAAAAAAAAAAAAAAAAAAAAAAAAAAAAAAAAAAAAAAAAAAAAAAAAAAAAAAAAAAAAAAAAAAAAAAAAAAAAAAAAAAAAAAAAAAAAAAAAAAAAAAAAAAAAAAAAAAAAAAAAAAAAAAAAAAAAAAAAAAAAAAAAAAAAAAAAAAAAAAAAAAAAAAAAAAAAAAAAAAAAAAAAAAAAAAAAAAAAAAAAAAAAAAAAAAAAAAAAAAAAAAAAAAAAAAAAAAAAAAAAAAAAAAAAAAAAAAAAAAAAAAAAAAAAAAAAAAAAAAAAAAAAAAAAAAAAAAAAAAAAAAAAAAAAAAAAAAAAAAAAAAAAAAAAAAAAAAAAAAAAAAAAAAAAAAAAAAAAAAAAAAAAAAAAAAAAAAAAAAAAAAAAAAAAAAAAAAAAAAAAAAAAAAAAAAAAAAAAAAAAAAAAAAAAAAAAAAAAAAAAAAAAAAAAAAAAAAAAAAAAAAAAAAAAAAAAAAAAAAAAAAAAAAAAAAAAAAAAAAAAAAAAAAAAAAAAAAAAAAAAAAAAAAAAAAAAAAAAAAAAAAAAAAAAAAAAAAAAAAAAAAAAAAAAAAAAAAAAAAAAAAAAAAAAAAAAAAAAAAAAAAAAAAAAAAAAAAAAAAAAAAAAAAAAAAAAAAAAAAAAAAAAAAAAAAAAAAAAAAAA9lhAYDmX99RJ1CbpGPXA+mWv++JbU/V7nmHwhqbXBehLmxtfrZ9LbAQYl2p7hnfGgVkA/q1IjpeHqk5jjLmJp8+UOg==</c2pa:manifest></metadata>
<title id="t">Permitra</title><desc id="d">The Permitra logo: mark and wordmark.</desc><rect x="275" y="377" width="1464" height="1285" rx="154" fill="#fffefe"/><path transform="translate(0,0)" fill="rgb(250,80,83)" d="M 953.38 827.052 C 994.733 828.084 1041.28 827.059 1082.97 826.995 C 1053.16 914.149 1090.46 997.066 1170.71 1039.37 C 1171.46 1053.02 1176.09 1085.39 1178.15 1099.51 C 1182.75 1131.01 1185.07 1176.84 1194.06 1205.68 C 1111.22 1204.44 1026.52 1205.24 943.5 1205.2 L 842.5 1205.22 C 827.38 1205.21 795.064 1206.2 782.158 1203.23 C 768.67 1200.14 756.344 1193.26 746.622 1183.41 C 736.047 1172.78 728.619 1159.42 725.159 1144.82 C 721.74 1130.21 723.092 1097.02 723.087 1080.15 L 723.07 973.518 C 754.243 939.991 794.539 905.106 824.703 871.654 C 825.212 872.43 825.721 873.207 826.23 873.984 C 836.292 888.361 851.67 898.135 868.959 901.142 C 886.598 904.136 908.608 899.796 922.968 889.034 C 945.949 871.809 949.04 852.937 953.38 827.052 z"/><path transform="translate(0,0)" fill="rgb(255,254,254)" d="M 861.297 986.507 L 980.233 986.07 C 1000.34 986.034 1020.65 985.481 1040.71 986.706 C 1051.23 987.188 1057.69 993.996 1058.33 1004.39 C 1059.85 1029.2 1023.88 1023.33 1006.5 1023.13 L 890.119 1023.04 C 869.83 1023.03 850.544 1023.22 829.438 1022.61 C 812.307 1023.86 803.74 1003.57 814.352 991.898 C 821.679 983.84 850.747 986.432 861.297 986.507 z"/><path transform="translate(0,0)" fill="rgb(255,254,254)" d="M 822.955 1079.14 C 847.201 1077.64 883.73 1079.24 911.454 1079.07 C 956.254 1080.02 1002.63 1077.28 1047.17 1080.35 C 1057.91 1081.09 1066.99 1104.62 1046.27 1114.93 C 1030.74 1115.77 1010.72 1115.26 994.789 1115.27 L 903.622 1115.27 L 851.793 1115.24 C 845.154 1115.23 830.804 1116.11 825.229 1114.69 C 803.587 1109.17 806.828 1088.95 822.955 1079.14 z"/><path transform="translate(0,0)" fill="rgb(44,77,250)" d="M 797.558 487.38 C 798.37 487.317 799.183 487.276 799.998 487.255 C 830.663 486.559 863.875 487.119 894.657 487.167 L 1066.06 487.522 L 1143.47 487.411 C 1177.14 487.265 1206.57 483.329 1232.67 508.969 C 1263.49 539.231 1257.65 581.561 1257.63 620.776 L 1257.96 717.019 C 1206.75 712.017 1158.02 731.121 1121.4 766.69 C 1115.95 772.238 1110.02 779.928 1105.02 786.071 L 960.982 786.023 C 965.283 766.262 969.346 746.451 973.172 726.593 C 975.778 713.238 979.532 695.843 979.802 682.573 C 979.961 675.333 978.924 668.117 976.731 661.216 C 971.3 643.934 960.29 630.592 944.12 622.386 C 933.648 617.114 922.111 614.299 910.388 614.154 C 896.474 614.062 867.402 619.578 851.8 621.744 L 781.702 631.514 C 761.64 634.39 742.255 636.527 722.964 642.906 L 722.793 594.642 C 722.785 564.273 721.051 540.308 742.161 515.021 C 756.666 497.647 775.275 489.368 797.558 487.38 z"/><path transform="translate(0,0)" fill="rgb(13,14,103)" d="M 1238.52 759.419 C 1284.6 756.076 1330.39 787.579 1351.88 827.024 C 1368.06 856.844 1371.55 891.92 1361.57 924.344 C 1351.49 957.3 1329.94 981.991 1299.77 998.051 L 1300.35 1011.84 C 1321 1009.8 1341.25 1006 1361.82 1003.71 C 1377.79 1001.94 1393.37 1011.88 1395.8 1028.5 C 1397.03 1036.51 1395.02 1044.69 1390.22 1051.21 C 1382.07 1062.08 1371.95 1063.28 1359.76 1064.95 C 1361.09 1074.75 1362.67 1084.52 1364.48 1094.25 C 1376.06 1092.89 1383.44 1090.76 1393.49 1097.96 C 1400.59 1103.05 1405.06 1110.99 1406.18 1119.59 C 1407.24 1127.5 1405.08 1135.51 1400.2 1141.82 C 1388.7 1156.7 1361.9 1157.14 1343.11 1159.71 C 1334.3 1160.79 1325.51 1162 1316.74 1163.34 C 1317.32 1176.45 1317.07 1187.31 1309.52 1198.73 C 1296.94 1217.85 1267.88 1221.8 1249.3 1209.34 C 1227.81 1194.93 1230.37 1167.33 1226.54 1144.88 C 1218.91 1100.13 1217.34 1052.85 1208.76 1008.44 C 1190.56 1003.14 1173.87 995.32 1159.48 982.845 C 1133.43 960.35 1117.53 928.325 1115.35 893.98 C 1111.27 836.353 1148.3 783.351 1203.08 765.406 C 1214.95 761.518 1226.13 760.262 1238.52 759.419 z"/><path transform="translate(0,0)" fill="rgb(255,254,254)" d="M 1239.4 836.469 C 1266.41 835.534 1289.19 856.426 1290.58 883.419 C 1291.98 910.412 1271.47 933.539 1244.51 935.393 C 1226.65 936.62 1209.52 928.119 1199.7 913.157 C 1189.88 898.194 1188.89 879.097 1197.12 863.202 C 1205.35 847.308 1221.51 837.087 1239.4 836.469 z"/><path transform="translate(0,0)" fill="rgb(13,14,103)" d="M 905.631 658.38 C 923.736 655.298 937.383 670.073 933.96 688.008 C 923.966 740.385 915.057 795.056 901.258 846.466 C 896.998 862.339 866.464 863.451 859.876 846.829 C 852.902 829.234 848.017 808.982 842.113 790.096 C 834.035 799.026 822.876 809.631 814.212 818.417 C 791.422 841.419 768.502 864.293 745.455 887.037 C 726.128 906.227 696.478 938.293 677.048 955.204 L 669.83 949.173 C 657.33 937.161 645.062 924.908 633.035 912.422 C 639.246 900.639 683.611 857.947 696.241 845.22 L 796.62 743.755 C 776.788 738.444 753.652 736.797 736.257 727.729 C 718.979 718.723 722.63 688.669 740.544 683.675 C 757.017 679.083 777.503 676.782 794.285 674.294 C 831.368 668.766 868.484 663.461 905.631 658.38 z"/><path transform="translate(0,0)" fill="rgb(13,14,103)" d="M 385.502 1318.46 C 403.599 1318.8 421.701 1318.9 439.801 1318.75 C 450.928 1318.76 462.198 1318.6 473.104 1319.2 C 517.786 1321.53 547.964 1349.16 547.373 1395.01 C 546.733 1444.61 510.462 1467.13 464.25 1467.09 L 423.272 1467.02 C 423.152 1494.65 423.678 1522.24 423.409 1549.92 L 385.064 1549.7 L 385.206 1397.48 C 385.215 1373.28 384.281 1342.15 385.502 1318.46 z"/><path transform="translate(0,0)" fill="rgb(255,254,254)" d="M 423.426 1353.19 C 441.175 1352.92 462.819 1351.82 479.949 1354.67 C 512.04 1360.02 517.761 1400.42 498.772 1422.41 C 479.912 1437.49 448.755 1432.85 423.266 1433.04 C 423.182 1406.42 423.236 1379.8 423.426 1353.19 z"/><path transform="translate(0,0)" fill="rgb(13,14,103)" d="M 1001 1406.09 C 1018.44 1373.73 1064.24 1369.47 1089.72 1393 C 1110.86 1412.51 1107.31 1448.42 1107.26 1474.07 L 1107.1 1549.29 L 1069.97 1549.36 L 1069.99 1479.83 C 1070.01 1465.64 1070.6 1453.52 1068.9 1438.56 C 1065.45 1408.09 1016.47 1403.16 1007.63 1431.28 C 1006.16 1435.99 1006.91 1455.12 1006.92 1461.56 L 1007.04 1520.5 L 1007.05 1549.43 L 970.044 1549.62 L 970.107 1477.74 C 970.116 1461.34 972.885 1436.29 962.638 1423.24 C 949.386 1406.37 911.094 1408.78 908.022 1433.09 C 906.521 1444.96 907.318 1460.13 907.297 1472.36 L 907.173 1549.24 L 870.163 1549.18 L 869.745 1380.89 L 906.886 1380.96 L 906.697 1402.79 C 918.145 1384.55 926.838 1380.06 948.106 1378.43 C 973.111 1377.89 986.68 1386.75 1001 1406.09 z"/><path transform="translate(0,0)" fill="rgb(13,14,103)" d="M 1539.82 1378.42 C 1593.89 1375.46 1615.17 1413.74 1611.04 1461.4 C 1609.93 1474.18 1611.2 1490.07 1610.79 1503.28 C 1610.35 1517.37 1614 1524.05 1628.94 1521.94 L 1628.88 1549.71 C 1600.48 1557.35 1585.03 1554.07 1573.61 1525.73 C 1555.99 1564.09 1506.88 1557.37 1481.31 1530.9 C 1473.34 1521.06 1469 1508.77 1469.03 1496.1 C 1469.1 1483.6 1474.03 1471.14 1483.04 1462.41 C 1505.88 1440.29 1545.1 1444.16 1574.88 1444.19 C 1574.18 1440.07 1573.43 1434.64 1571.9 1430.69 C 1564.73 1412.1 1540.31 1405.97 1523.21 1413.68 C 1514.51 1417.6 1510.31 1423.59 1507.26 1432.56 C 1495.42 1431.3 1483.55 1430.22 1471.67 1429.32 C 1482.4 1394.34 1503.93 1381.24 1539.82 1378.42 z"/><path transform="translate(0,0)" fill="rgb(255,254,254)" d="M 1534.28 1473.37 C 1545.39 1472.78 1562.8 1473.1 1574.01 1473.42 C 1573.89 1498.39 1573.04 1512.57 1546.4 1520.31 C 1525.06 1522.65 1494.86 1513.33 1509.08 1483.55 C 1512.55 1476.29 1526.67 1474.21 1534.28 1473.37 z"/><path transform="translate(0,0)" fill="rgb(13,14,103)" d="M 630.23 1379.28 C 635.801 1378.66 641.411 1378.47 647.012 1378.7 C 675.994 1379.94 700.612 1399.52 710.181 1426.46 C 716.178 1443.34 717.04 1458.98 716.176 1476.66 C 678.355 1476.31 639.061 1475.53 601.336 1476.28 C 602.343 1482.97 603.381 1488.69 606.448 1494.9 C 611.665 1505.52 620.921 1513.61 632.146 1517.36 C 652.233 1524.15 673.608 1518.3 680.723 1496.88 L 698.5 1497.19 L 716.593 1497.65 C 707.359 1552.75 642.008 1565.64 599.965 1539.74 C 558.91 1514.45 554.29 1446.72 579.334 1409.25 C 591.086 1391.67 609.814 1382.93 630.23 1379.28 z"/><path transform="translate(0,0)" fill="rgb(255,254,254)" d="M 634.725 1411.21 C 658.911 1409.29 675.556 1419.84 679.156 1444.82 L 679.476 1446.82 L 648.25 1446.75 C 633.357 1446.72 616.886 1447.18 602.152 1446.63 C 608.696 1426.95 613.741 1417.16 634.725 1411.21 z"/><path transform="translate(0,0)" fill="rgb(13,14,103)" d="M 1240.97 1338.87 L 1278.71 1338.93 L 1278.76 1381.12 L 1332 1381.08 L 1331.9 1412.43 C 1314.13 1412.1 1296.35 1412 1278.58 1412.11 L 1278.17 1462.5 C 1278.03 1489.71 1274.39 1530.59 1319.41 1514.63 C 1323.16 1513.3 1327.37 1509.39 1331.31 1509.33 L 1331.79 1510.91 L 1331.73 1540.08 C 1311.21 1555.01 1272.33 1557.24 1255.68 1537.91 C 1233.41 1512.05 1240.84 1445.74 1240.95 1411.93 L 1217.37 1412.01 L 1217.33 1381.05 L 1241.02 1381.02 L 1240.97 1338.87 z"/><path transform="translate(0,0)" fill="rgb(13,14,103)" d="M 1429.3 1379.19 C 1441.96 1378.5 1444.71 1378.8 1457.01 1381.82 L 1456.88 1419.8 C 1435.46 1412.71 1403.98 1408.45 1399.5 1438.13 C 1398.02 1447.94 1399.03 1464.13 1399.03 1474.48 L 1399.03 1549.79 L 1378.93 1549.71 L 1361.52 1549.84 C 1362.59 1494.45 1361.81 1436.45 1361.93 1380.87 C 1373.87 1380.74 1386.07 1380.89 1398.04 1380.91 C 1398.11 1386.96 1398.45 1393.06 1398.72 1399.11 C 1408.93 1386.48 1413.5 1382.64 1429.3 1379.19 z"/><path transform="translate(0,0)" fill="rgb(13,14,103)" d="M 820.056 1379.19 C 831.71 1378.6 835.066 1378.48 846.219 1381.7 C 845.73 1393.73 845.911 1407.32 845.816 1419.47 C 824.957 1412.51 794.454 1409.15 789.206 1437.26 C 787.139 1448.32 788.42 1466.07 788.491 1477.81 L 788.766 1549.22 L 761.13 1549.09 C 757.036 1549.22 755.441 1549.53 751.603 1548.39 C 750.563 1544.06 750.961 1509.09 750.959 1501.69 L 750.962 1380.91 L 787.541 1380.68 L 787.74 1403.93 C 788.514 1402.67 789.305 1401.43 790.114 1400.19 C 798.963 1386.7 804.441 1382.5 820.056 1379.19 z"/><path transform="translate(0,0)" fill="rgb(13,14,103)" d="M 1152.2 1381.02 L 1189.11 1381 L 1189.5 1549.75 C 1178.84 1550.35 1163.04 1549.87 1152 1549.89 L 1152.2 1381.02 z"/><path transform="translate(0,0)" fill="rgb(13,14,103)" d="M 1170.16 1314.4 C 1194 1316.07 1196.51 1330 1192.28 1351.18 L 1191.45 1352.11 C 1183.98 1360.61 1181.07 1360.93 1170.49 1362.94 C 1158.91 1361.44 1148.13 1356.94 1147.09 1344 C 1145.49 1324.29 1151.21 1316.64 1170.16 1314.4 z"/></svg>
